<?xml version="1.0" standalone="no"?>
<!DOCTYPE svg PUBLIC "-//W3C//DTD SVG 20010904//EN"
 "http://www.w3.org/TR/2001/REC-SVG-20010904/DTD/svg10.dtd">
<svg version="1.0" xmlns="http://www.w3.org/2000/svg"
 width="400.000000pt" height="205.000000pt" viewBox="0 0 400.000000 205.000000"
 preserveAspectRatio="xMidYMid meet">
<g transform="translate(0.000000,205.000000) scale(0.100000,-0.100000)"
fill="#000000" stroke="none">
<path d="M2130 1860 c0 -203 26 -630 46 -772 l6 -38 49 0 c37 0 51 4 56 17 9
24 -15 334 -38 482 -31 201 -94 461 -111 461 -4 0 -8 -68 -8 -150z"/>
<path d="M1874 1867 c16 -77 26 -853 11 -877 -9 -14 0 -13 65 11 53 19 58 24
64 57 17 104 -6 401 -44 571 -28 127 -69 249 -86 255 -10 4 -13 -1 -10 -17z"/>
<path d="M2355 1825 c3 -22 10 -128 15 -235 6 -107 18 -268 27 -357 l16 -163
43 0 c39 0 44 3 50 26 11 43 -3 332 -21 428 -22 126 -71 267 -106 307 l-29 34
5 -40z"/>
<path d="M2584 1593 c36 -159 74 -429 68 -477 -1 -13 2 -16 14 -12 8 3 25 6
37 6 46 0 48 10 23 115 -36 146 -125 395 -142 395 -3 0 -4 -12 0 -27z"/>
<path d="M1140 1292 c0 -4 15 -13 33 -20 99 -37 181 -173 202 -336 l7 -48 46
7 c26 4 48 8 50 10 8 7 -29 128 -54 177 -37 73 -116 152 -187 188 -59 29 -97
38 -97 22z"/>
<path d="M2700 1041 l-35 -6 -7 -105 c-15 -246 -69 -397 -184 -519 -101 -108
-239 -174 -415 -202 -195 -30 -416 86 -504 265 -39 78 -64 192 -65 294 0 34
-2 62 -5 62 -2 0 -27 -5 -54 -11 -47 -10 -51 -13 -57 -46 -4 -20 -4 -81 -1
-137 15 -278 188 -494 461 -573 237 -69 562 32 742 230 132 146 194 328 194
572 0 135 -7 186 -24 184 -6 -1 -27 -4 -46 -8z"/>
<path d="M2443 905 c-5 -286 -125 -449 -339 -463 -132 -8 -278 30 -352 93 -57
49 -103 145 -109 229 l-6 66 -43 0 -44 0 0 -38 c0 -22 9 -73 19 -114 63 -245
224 -378 462 -378 230 0 416 151 474 384 17 68 34 214 35 289 l0 37 -47 0 -48
0 -2 -105z"/>
<path d="M1921 899 c-49 -35 -71 -80 -71 -144 0 -181 250 -236 329 -72 35 72
22 145 -36 198 -42 40 -66 49 -126 49 -44 0 -61 -5 -96 -31z"/>
</g>
</svg>
